<mxfile host="app.diagrams.net" agent="Mozilla/5.0 (Windows NT 10.0; Win64; x64) AppleWebKit/537.36 (KHTML, like Gecko) Chrome/135.0.0.0 Safari/537.36 Edg/135.0.0.0" version="26.2.9">
  <diagram name="Page-1" id="JwFWjlHa0yYjuDXYSrsF">
    <mxGraphModel dx="1713" dy="1763" grid="1" gridSize="10" guides="1" tooltips="1" connect="1" arrows="1" fold="1" page="1" pageScale="1" pageWidth="850" pageHeight="1100" math="0" shadow="0">
      <root>
        <mxCell id="0" />
        <mxCell id="1" parent="0" />
        <mxCell id="jGa53JZyA5L5RdkzGYDj-1" value="Xe" style="whiteSpace=wrap;html=1;align=center;" vertex="1" parent="1">
          <mxGeometry x="-50" y="-140" width="100" height="40" as="geometry" />
        </mxCell>
        <mxCell id="jGa53JZyA5L5RdkzGYDj-2" value="Tài Xế" style="whiteSpace=wrap;html=1;align=center;" vertex="1" parent="1">
          <mxGeometry x="330" y="50" width="100" height="40" as="geometry" />
        </mxCell>
        <mxCell id="jGa53JZyA5L5RdkzGYDj-3" value="Entity" style="whiteSpace=wrap;html=1;align=center;" vertex="1" parent="1">
          <mxGeometry x="-50" y="250" width="100" height="40" as="geometry" />
        </mxCell>
        <mxCell id="jGa53JZyA5L5RdkzGYDj-5" value="CHUYẾN ĐI" style="whiteSpace=wrap;html=1;align=center;" vertex="1" parent="1">
          <mxGeometry x="-480" y="50" width="100" height="40" as="geometry" />
        </mxCell>
        <mxCell id="jGa53JZyA5L5RdkzGYDj-6" value="Phân công" style="shape=rhombus;perimeter=rhombusPerimeter;whiteSpace=wrap;html=1;align=center;" vertex="1" parent="1">
          <mxGeometry x="570" y="220" width="120" height="60" as="geometry" />
        </mxCell>
        <mxCell id="jGa53JZyA5L5RdkzGYDj-14" style="edgeStyle=orthogonalEdgeStyle;rounded=0;orthogonalLoop=1;jettySize=auto;html=1;exitX=0.5;exitY=1;exitDx=0;exitDy=0;" edge="1" parent="1" source="jGa53JZyA5L5RdkzGYDj-7" target="jGa53JZyA5L5RdkzGYDj-1">
          <mxGeometry relative="1" as="geometry" />
        </mxCell>
        <mxCell id="jGa53JZyA5L5RdkzGYDj-7" value="&lt;u&gt;Mã Xe&lt;/u&gt;" style="ellipse;whiteSpace=wrap;html=1;align=center;" vertex="1" parent="1">
          <mxGeometry x="-370" y="-270" width="100" height="40" as="geometry" />
        </mxCell>
        <mxCell id="jGa53JZyA5L5RdkzGYDj-15" style="edgeStyle=orthogonalEdgeStyle;rounded=0;orthogonalLoop=1;jettySize=auto;html=1;exitX=0.5;exitY=1;exitDx=0;exitDy=0;" edge="1" parent="1" source="jGa53JZyA5L5RdkzGYDj-9" target="jGa53JZyA5L5RdkzGYDj-1">
          <mxGeometry relative="1" as="geometry" />
        </mxCell>
        <mxCell id="jGa53JZyA5L5RdkzGYDj-9" value="Hiệu Xe" style="ellipse;whiteSpace=wrap;html=1;align=center;" vertex="1" parent="1">
          <mxGeometry x="-210" y="-270" width="100" height="40" as="geometry" />
        </mxCell>
        <mxCell id="jGa53JZyA5L5RdkzGYDj-16" style="edgeStyle=orthogonalEdgeStyle;rounded=0;orthogonalLoop=1;jettySize=auto;html=1;exitX=0.5;exitY=1;exitDx=0;exitDy=0;" edge="1" parent="1" source="jGa53JZyA5L5RdkzGYDj-10" target="jGa53JZyA5L5RdkzGYDj-1">
          <mxGeometry relative="1" as="geometry" />
        </mxCell>
        <mxCell id="jGa53JZyA5L5RdkzGYDj-10" value="Số chỗ ngồi" style="ellipse;whiteSpace=wrap;html=1;align=center;" vertex="1" parent="1">
          <mxGeometry x="-50" y="-270" width="100" height="40" as="geometry" />
        </mxCell>
        <mxCell id="jGa53JZyA5L5RdkzGYDj-17" style="edgeStyle=orthogonalEdgeStyle;rounded=0;orthogonalLoop=1;jettySize=auto;html=1;exitX=0.5;exitY=1;exitDx=0;exitDy=0;" edge="1" parent="1" source="jGa53JZyA5L5RdkzGYDj-11" target="jGa53JZyA5L5RdkzGYDj-1">
          <mxGeometry relative="1" as="geometry" />
        </mxCell>
        <mxCell id="jGa53JZyA5L5RdkzGYDj-11" value="Số km đã chạy" style="ellipse;whiteSpace=wrap;html=1;align=center;" vertex="1" parent="1">
          <mxGeometry x="110" y="-270" width="100" height="40" as="geometry" />
        </mxCell>
        <mxCell id="jGa53JZyA5L5RdkzGYDj-18" style="edgeStyle=orthogonalEdgeStyle;rounded=0;orthogonalLoop=1;jettySize=auto;html=1;exitX=0.5;exitY=1;exitDx=0;exitDy=0;" edge="1" parent="1" source="jGa53JZyA5L5RdkzGYDj-12" target="jGa53JZyA5L5RdkzGYDj-1">
          <mxGeometry relative="1" as="geometry" />
        </mxCell>
        <mxCell id="jGa53JZyA5L5RdkzGYDj-12" value="Tình trạng hoạt động" style="ellipse;whiteSpace=wrap;html=1;align=center;" vertex="1" parent="1">
          <mxGeometry x="270" y="-270" width="100" height="40" as="geometry" />
        </mxCell>
      </root>
    </mxGraphModel>
  </diagram>
</mxfile>
